<?xml version="1.0" standalone="no"?>
<!DOCTYPE svg PUBLIC "-//W3C//DTD SVG 20010904//EN"
 "http://www.w3.org/TR/2001/REC-SVG-20010904/DTD/svg10.dtd">
<svg version="1.0" xmlns="http://www.w3.org/2000/svg"
 width="400.000000pt" height="400.000000pt" viewBox="0 0 400.000000 400.000000"
 preserveAspectRatio="xMidYMid meet">

<g transform="translate(0.000000,400.000000) scale(0.100000,-0.100000)"
fill="#000000" stroke="none">
<path d="M720 2981 c-33 -7 -34 -8 -10 -14 14 -3 46 -8 72 -10 60 -6 132 -41
146 -72 6 -13 16 -64 23 -112 16 -128 16 -129 44 -141 14 -7 50 -12 79 -12
l54 0 -5 -63 c-5 -53 -3 -65 11 -70 39 -15 98 35 132 113 26 59 37 50 29 -26
-10 -92 -47 -195 -98 -267 -10 -14 -7 -25 16 -66 48 -86 30 -135 -60 -161 -58
-18 -86 -7 -149 55 -43 43 -62 55 -87 55 -56 1 -112 33 -138 81 -24 44 -51 58
-78 40 -7 -5 -19 -42 -26 -82 -7 -41 -18 -100 -25 -131 -18 -81 -7 -142 31
-170 20 -15 29 -30 29 -49 0 -27 -16 -42 -75 -75 -24 -13 -29 -52 -20 -151 l7
-73 209 0 209 0 0 98 c1 97 9 203 16 211 2 2 8 -9 14 -25 42 -111 159 -336
182 -350 10 -6 98 27 98 37 0 3 19 14 43 24 23 10 49 24 57 31 8 6 36 19 63
29 26 10 47 23 47 29 -1 6 -21 34 -46 61 -25 28 -77 97 -116 155 l-70 105 33
25 c152 113 220 254 218 449 -3 275 -125 436 -384 507 -65 18 -409 29 -475 15z"/>
<path d="M1672 2392 c-9 -7 -12 -56 -10 -213 l3 -204 30 -3 c50 -6 55 12 55
214 0 153 -3 185 -16 198 -17 17 -42 20 -62 8z"/>
<path d="M1903 2393 c-9 -3 -13 -29 -13 -79 l0 -74 -44 0 c-50 0 -76 -19 -76
-55 0 -36 26 -55 76 -55 l44 0 0 -68 c0 -72 10 -92 45 -92 42 0 45 15 45 215
0 135 -4 195 -12 203 -12 12 -43 15 -65 5z"/>
<path d="M2053 2393 c-10 -3 -13 -54 -13 -203 0 -194 1 -199 22 -214 19 -13
25 -14 43 -2 19 13 20 25 23 206 2 133 -1 197 -9 206 -11 14 -42 17 -66 7z"/>
<path d="M2208 2389 c-16 -9 -18 -30 -18 -203 0 -211 2 -220 57 -214 l28 3 5
110 5 110 70 -104 c39 -57 77 -109 86 -114 9 -5 28 -7 42 -3 l27 6 0 204 0
204 -25 6 c-14 4 -34 2 -45 -4 -18 -10 -20 -21 -20 -112 l0 -101 -30 41 c-16
23 -30 46 -30 52 0 5 -3 10 -8 10 -4 0 -16 17 -27 38 -37 71 -77 95 -117 71z"/>
<path d="M2953 2389 c-18 -5 -39 -20 -47 -32 -22 -33 -29 -97 -17 -142 16 -57
47 -76 137 -82 52 -4 77 -10 81 -20 11 -27 -18 -38 -115 -43 -95 -5 -97 -5
-106 -33 -18 -52 -2 -62 110 -65 124 -4 165 7 189 51 21 40 18 146 -6 169 -39
39 -65 48 -130 48 -52 0 -68 4 -73 16 -11 29 4 34 103 34 62 0 101 4 109 12
18 18 15 85 -4 92 -24 9 -195 5 -231 -5z"/>
<path d="M2653 2365 c-46 -20 -56 -46 -48 -121 8 -80 48 -143 112 -178 67 -38
85 -35 113 22 34 65 33 146 0 207 -14 25 -30 45 -37 45 -7 0 -13 4 -13 9 0 10
-54 31 -79 31 -9 -1 -30 -7 -48 -15z"/>
<path d="M2548 2244 c-12 -11 -10 -112 2 -119 6 -3 10 -15 10 -25 0 -45 133
-131 160 -104 7 7 -5 17 -32 29 -24 10 -49 26 -56 34 -39 49 -63 97 -70 142
-4 28 -10 47 -14 43z"/>
<path d="M2586 2180 c3 -19 10 -36 15 -38 5 -2 9 -9 9 -16 0 -17 67 -86 83
-86 7 0 -4 15 -23 32 -19 18 -47 57 -63 87 -25 49 -28 52 -21 21z"/>
<path d="M2715 2030 c3 -5 18 -10 32 -10 32 0 28 5 -10 14 -19 4 -26 3 -22 -4z"/>
<path d="M2360 1700 l0 -210 565 0 565 0 0 210 0 210 -565 0 -565 0 0 -210z
m175 140 c4 -16 11 -32 16 -35 5 -4 9 -14 9 -24 0 -10 11 -52 24 -92 13 -41
27 -91 31 -112 l7 -38 -33 3 c-28 2 -35 8 -43 36 -8 30 -12 32 -52 32 -40 0
-43 -2 -54 -35 -10 -30 -16 -35 -42 -35 -31 0 -31 0 -24 46 3 25 12 60 20 77
7 18 18 56 25 84 6 29 17 68 25 88 13 30 19 35 50 35 30 0 35 -4 41 -30z m195
-135 l0 -165 -35 0 -35 0 0 165 0 165 35 0 35 0 0 -165z m130 143 c25 -27 28
-109 5 -128 -9 -8 -13 -20 -9 -29 6 -16 33 -128 34 -143 0 -5 -13 -8 -30 -8
-24 0 -31 5 -35 28 -18 84 -19 87 -53 90 -28 3 -32 7 -32 33 0 23 4 29 21 29
31 0 59 19 59 40 0 37 -11 50 -46 50 -31 0 -34 3 -34 30 0 29 1 30 50 30 38 0
54 -5 70 -22z m136 5 c3 -10 14 -34 25 -54 l19 -36 -23 -11 c-22 -11 -22 -11
3 -11 37 -1 60 -46 60 -116 0 -50 -2 -55 -15 -41 -8 8 -15 19 -15 25 0 16 -33
81 -41 81 -6 0 -23 57 -21 71 1 4 -7 14 -17 23 -17 16 -19 16 -24 -4 -3 -13 0
-20 9 -20 23 0 34 -45 34 -136 l0 -84 -29 0 -30 0 -3 91 c-2 66 0 93 9 96 9 4
10 10 2 24 -5 11 -12 36 -14 57 -4 35 -4 36 12 17 16 -20 16 -16 -3 30 -5 11
1 15 25 15 21 0 33 -6 37 -17z m243 -4 c-8 -15 -8 -19 0 -15 8 5 11 -36 11
-143 l0 -151 -35 0 -36 0 5 89 c3 50 8 103 12 118 3 15 -18 -19 -48 -77 l-53
-105 -3 58 c-2 37 2 67 12 85 8 15 30 57 48 94 31 63 35 68 66 68 30 0 32 -2
21 -21z m125 -11 c6 -18 6 -35 -1 -50 -6 -13 -14 -32 -18 -43 -7 -18 -8 -17
-18 10 -5 17 -13 35 -17 40 -4 6 -11 25 -15 43 -7 33 -6 33 26 30 26 -2 36 -9
43 -30z m109 12 c-3 -11 -9 -20 -13 -20 -4 0 -10 -15 -13 -34 -3 -18 -15 -53
-26 -77 -12 -23 -21 -49 -21 -56 0 -7 -11 -37 -24 -68 -23 -50 -28 -55 -56
-55 -30 0 -31 1 -24 38 4 20 12 46 19 57 7 11 29 68 51 128 l38 107 37 0 c32
0 36 -3 32 -20z"/>
<path d="M2481 1744 c-11 -40 -22 -110 -14 -86 2 6 15 12 28 12 22 0 23 3 18
38 -3 20 -9 46 -13 57 -6 17 -9 13 -19 -21z"/>
<path d="M3212 1800 c-7 -11 -8 -20 -3 -20 9 0 24 30 18 36 -1 2 -8 -6 -15
-16z"/>
</g>
</svg>
